<svg width="273" height="36" viewBox="0 0 273 36" fill="none" xmlns="http://www.w3.org/2000/svg">
<path d="M31.8062 30.8284H23.8435V23.266H7.91819V30.8284L0 35.3213V10.5436L5.96088 4.58269H25.8453L31.8062 10.5436V30.8284ZM23.8435 17.4831V10.4546H7.91819V17.4831H23.8435ZM67.7654 4.58269L61.938 10.4546H44.3222V24.9564H66.8312L60.9593 30.8284H42.3649L36.4041 24.8675V10.5436L42.3649 4.58269H67.7654ZM101.356 35.3213L93.3935 30.8284V23.266H77.4682V30.8284L69.55 30.7839V10.5436L75.5109 4.58269H95.3953L101.356 10.5436V35.3213ZM93.3935 17.4831V10.4546H77.4682V17.4831H93.3935ZM140.716 17.7055L133.287 30.8284H106.997V4.58269H133.287L140.716 17.7055ZM132.13 17.7055L128.038 10.4546H114.915V24.9564H128.038L132.13 17.7055ZM177.151 4.58269L171.324 10.4546H153.708V15.0365H173.326L167.988 20.3746H153.708V24.9564H176.217L170.345 30.8284H145.79V4.58269H177.151ZM221.591 35.3213L213.672 30.7839V14.0133L203.841 27.5365H198.726L188.939 14.0133V30.7839H181.021V4.58269H189.962L201.306 20.1966L212.605 4.58269H221.591V35.3213ZM235.248 30.8284L227.33 30.7839V4.58269L235.248 0.000817355V30.8284ZM272.158 4.58269L266.331 10.4546H248.715V24.9564H271.224L265.352 30.8284H246.758L240.797 24.8675V10.5436L246.758 4.58269H272.158Z" fill="white"/>
</svg>
