<svg width="193" height="23" viewBox="0 0 193 23" fill="none" xmlns="http://www.w3.org/2000/svg">
<path d="M0.480297 17.1047C0.160297 16.7527 0.000296876 16.3367 0.000296876 15.8727C0.000296876 15.6007 0.0482969 15.3127 0.160297 15.0087L2.5923 7.95275C2.8003 7.36075 3.1203 6.83275 3.5203 6.36875L2.0163 5.00875H16.5283C17.1203 5.00875 17.5523 5.16875 17.8563 5.50475C18.0483 5.72875 18.1443 5.96875 18.1443 6.24075C18.1443 6.40075 18.1123 6.56075 18.0483 6.73675L17.0563 9.63275H12.7043L13.1523 8.27275C13.1683 8.24075 13.1683 8.22475 13.1683 8.20875C13.1683 8.16075 13.1203 8.12875 13.0403 8.12875H7.1683L7.1363 8.14475H4.9123L6.4003 9.48875L4.6403 14.5927C4.6243 14.6247 4.6243 14.6567 4.6243 14.6887C4.6243 14.7847 4.7043 14.8327 4.8643 14.8327H10.7203C10.8323 14.8327 10.9123 14.7847 10.9443 14.6887L11.4083 13.3447H15.7603L14.7683 16.2407C14.4323 17.3127 13.0883 17.9688 12.0323 17.9688H2.7683C1.7603 17.9688 0.992297 17.6807 0.480297 17.1047ZM17.6834 17.1207C17.3634 16.7527 17.2034 16.3367 17.2034 15.8727C17.2034 15.6007 17.2514 15.3127 17.3634 15.0087L19.7954 7.95275C20.0674 7.15275 20.5634 6.48075 21.2674 5.92075L20.2434 5.00875H32.2114C33.2354 5.00875 34.0034 5.29675 34.4994 5.85675C34.8194 6.22475 34.9794 6.64075 34.9794 7.10475C34.9794 7.37675 34.9314 7.64875 34.8194 7.95275L32.3874 15.0087C31.7474 16.8167 30.0834 17.9688 28.1634 17.9688H19.9714C18.9474 17.9688 18.1794 17.6807 17.6834 17.1207ZM21.8434 14.5927C21.8274 14.6247 21.8274 14.6567 21.8274 14.6887C21.8274 14.7847 21.9074 14.8327 22.0514 14.8327H27.8114C27.9874 14.8327 28.1154 14.7527 28.1634 14.5927L30.3234 8.36875C30.3394 8.33675 30.3394 8.28875 30.3554 8.25675C30.3394 8.17675 30.2754 8.12875 30.1314 8.12875H24.3714C24.3554 8.12875 24.3554 8.14475 24.3394 8.14475H22.0514L23.5874 9.53675L21.8434 14.5927ZM37.8019 17.9688H33.4499C34.2979 15.5047 35.2579 12.7047 36.0259 10.5127C36.4579 9.21675 36.8899 7.96875 37.3219 6.75275L35.4019 5.00875H41.6259L43.9139 12.5607C43.9619 12.5127 44.0099 12.4487 44.0579 12.4007L44.2499 12.2087C44.3139 12.1447 44.3939 12.0647 44.4739 11.9687C45.2899 11.0727 46.9539 9.34475 48.3939 7.82475C49.2419 6.92875 50.1219 5.98475 51.0499 5.00875H55.1939L55.1459 5.15275C55.0979 5.26475 55.0499 5.37675 55.0019 5.55275C54.8099 6.08075 54.5219 6.89675 54.1859 7.90475C53.4979 9.82475 52.6339 12.3207 51.9459 14.3687C51.5299 15.5687 51.1139 16.7687 50.6979 17.9688H46.3459L48.1379 12.8007C47.2579 13.6487 46.4259 14.4647 45.6099 15.2487C44.2499 16.6087 42.6179 18.1608 41.6739 19.0568C41.4819 18.4967 41.2579 17.8407 41.0179 17.1367L40.6659 16.0967C40.5539 15.7607 40.4419 15.4247 40.3299 15.1047C40.0739 14.3527 39.8179 13.6007 39.5619 12.8167C39.3859 13.2967 39.2099 13.8247 39.0179 14.3847C38.6979 15.3447 38.2499 16.6247 37.8019 17.9688ZM53.0343 17.9688C53.2423 17.3607 53.4503 16.7367 53.6743 16.0967L54.3463 14.1767C54.7943 12.8967 55.2263 11.6327 55.6103 10.5447C56.0583 9.24875 56.4903 7.98475 56.9223 6.75275L54.9863 5.00875H68.4423C69.6423 5.00875 70.9223 5.48875 71.1783 6.81675C71.1943 6.92875 71.2103 7.04075 71.2103 7.15275C71.2103 7.31275 71.1943 7.56875 71.0663 7.95275L69.8983 11.3127C69.3063 13.1047 67.5143 14.2567 65.6743 14.2567H58.6663C58.5543 14.5927 58.4263 14.9607 58.2823 15.3607C58.0423 16.0487 57.7223 16.9607 57.3863 17.9688H53.0343ZM58.8903 8.14475L60.3303 9.44075L59.7063 11.2647H65.2743C65.4503 11.2647 65.5783 11.1847 65.6423 11.0407L66.5543 8.36875C66.5703 8.35275 66.5703 8.32075 66.5703 8.27275C66.5543 8.17675 66.4743 8.12875 66.3623 8.12875L60.7943 8.14475H58.8903ZM66.1185 22.9768H61.3345C63.7505 20.1768 67.3505 16.0007 70.3425 12.5447C72.1025 10.5127 73.8945 8.44875 75.7345 6.32075L74.2785 5.00875H81.1585C81.3665 6.19275 81.5745 7.37675 81.7825 8.54475C82.1185 10.5447 82.5985 13.0247 82.9345 14.9447C83.0785 15.8407 83.2065 16.5447 83.3186 17.1047L83.4625 17.9688H77.9105L74.2785 14.6727H78.3585L77.4465 9.55275V9.56875L76.2625 10.9607C74.9985 12.4647 73.7505 13.9367 72.5185 15.3927C70.4225 17.8727 67.9105 20.8968 66.1185 22.9768ZM85.5707 22.9768H81.2187C82.3707 19.6968 83.7787 15.6487 84.8827 12.4007C85.5387 10.4967 86.1947 8.62475 86.8347 6.75275L84.8987 5.00875H91.7787L95.4907 12.7047C96.1627 10.7367 96.7867 8.91275 97.3787 7.23275C98.3707 4.36875 99.4587 1.15275 99.8907 0.000749588H104.243L98.0187 17.9688H93.8907L89.9707 10.2567C89.2827 12.2247 88.6587 14.0487 88.0667 15.7287C87.0587 18.5928 85.9547 21.8088 85.5707 22.9768ZM104.198 6.99275L102.006 5.00875H108.406L110.038 9.66475L115.046 5.00875H120.23L111.078 13.4247L109.51 17.9688H105.158L106.726 13.4247L104.198 6.99275ZM127.043 22.9768H122.691C123.843 19.6968 125.251 15.6487 126.355 12.4007C127.011 10.4967 127.667 8.62475 128.307 6.75275L126.371 5.00875H133.267L136.963 12.7047C137.651 10.7367 138.275 8.91275 138.867 7.23275C139.859 4.36875 140.979 1.16875 141.363 0.000749588H145.715C145.251 1.40875 143.651 5.88875 142.243 10.0327C141.395 12.4647 140.483 15.1047 139.507 17.9688H135.363L131.443 10.2567C130.771 12.2247 130.147 14.0487 129.555 15.7287C128.579 18.6088 127.427 21.8248 127.043 22.9768ZM140.306 22.9768H135.522C137.938 20.1768 141.538 16.0007 144.53 12.5447C146.29 10.5127 148.082 8.44875 149.922 6.32075L148.466 5.00875H155.346C155.554 6.19275 155.762 7.37675 155.97 8.54475C156.306 10.5447 156.786 13.0247 157.122 14.9447C157.266 15.8407 157.394 16.5447 157.506 17.1047L157.65 17.9688H152.098L148.466 14.6727H152.546L151.634 9.55275V9.56875L150.45 10.9607C149.186 12.4647 147.938 13.9367 146.706 15.3927C144.61 17.8727 142.098 20.8968 140.306 22.9768ZM159.758 17.9688H155.406C156.254 15.5047 157.214 12.7047 157.982 10.5127C158.414 9.21675 158.846 7.96875 159.278 6.75275L157.358 5.00875H163.582L165.87 12.5607C165.918 12.5127 165.966 12.4487 166.014 12.4007L166.206 12.2087C166.27 12.1447 166.35 12.0647 166.43 11.9687C167.246 11.0727 168.91 9.34475 170.35 7.82475C171.198 6.92875 172.078 5.98475 173.006 5.00875H177.15L177.102 5.15275C177.054 5.26475 177.006 5.37675 176.958 5.55275C176.766 6.08075 176.478 6.89675 176.142 7.90475C175.454 9.82475 174.59 12.3207 173.902 14.3687C173.486 15.5687 173.07 16.7687 172.654 17.9688H168.302L170.094 12.8007C169.214 13.6487 168.382 14.4647 167.566 15.2487C166.206 16.6087 164.574 18.1608 163.63 19.0568C163.438 18.4967 163.214 17.8407 162.974 17.1367L162.622 16.0967C162.51 15.7607 162.398 15.4247 162.286 15.1047C162.03 14.3527 161.774 13.6007 161.518 12.8167C161.342 13.2967 161.166 13.8247 160.974 14.3847C160.654 15.3447 160.206 16.6247 159.758 17.9688ZM175.664 16.4487C175.632 16.3367 175.632 16.2247 175.632 16.0967C175.632 15.9207 175.648 15.7447 175.712 15.5687C175.872 15.1207 176.048 14.6407 176.224 14.1287C176.528 13.2487 176.912 12.1287 177.312 10.9767C177.68 9.88875 178.064 8.81675 178.336 8.00075C178.496 7.53675 178.656 7.08875 178.8 6.65675L176.96 5.00875H192.704L191.616 8.12875L182.64 8.14475H180.8L182.208 9.40875L181.936 10.1767H190.912C190.608 11.0087 190.304 11.9687 190 12.8007H179.616L180.688 13.7767L180.32 14.8327H189.296L188.208 17.9688H177.664C176.64 17.9688 175.824 17.2967 175.664 16.4487Z" fill="#121B3D"/>
</svg>
