<svg width="220" height="36" viewBox="0 0 220 36" fill="none" xmlns="http://www.w3.org/2000/svg">
<path d="M31.4948 30.8284H23.5766V20.3746H7.91819V30.8284L0 35.3213V4.58269H7.91819V15.0365H23.5766V4.58269H31.4948V30.8284ZM70.7757 24.823L64.8149 30.7839H42.9731L37.0122 24.823V10.5436L42.9731 4.58269H64.8149L70.7757 10.5436V24.823ZM62.8575 24.9564V10.4101H44.9304V24.9564H62.8575ZM111.368 22.7322L105.407 30.7839H74.9802L80.8076 24.9564H100.781L102.649 22.7322L100.781 20.3746H80.7631L74.9802 12.6343L80.9411 4.58269H111.368L105.496 10.4101H85.5674L83.6546 12.6343L85.5674 14.992H105.585L111.368 22.7322ZM149.785 4.58269L143.957 10.4101H136.173V35.3213L128.255 30.7839V10.4101H120.47L114.642 4.58269H149.785ZM184.797 4.58269L178.97 10.4546H161.354V15.0365H180.971L175.633 20.3746H161.354V24.9564H183.863L177.991 30.8284H153.436V4.58269H184.797ZM219.094 24.9564L213.222 30.8284H188.667V4.58269L196.585 0.000817355V24.9564H219.094Z" fill="white"/>
</svg>
