<svg width="143" height="36" viewBox="0 0 143 36" fill="none" xmlns="http://www.w3.org/2000/svg">
<path d="M30.4272 24.9564L24.5553 30.8284H0V4.58269L7.91819 0.000817355V24.9564H30.4272ZM66.3436 17.7055L58.9148 30.8284H32.6246V4.58269H58.9148L66.3436 17.7055ZM57.7582 17.7055L53.6657 10.4546H40.5428V24.9564H53.6657L57.7582 17.7055ZM103.094 30.8284H95.1312V23.266H79.2058V30.8284L71.2877 35.3213V10.5436L77.2485 4.58269H97.133L103.094 10.5436V30.8284ZM95.1312 17.4831V10.4546H79.2058V17.4831H95.1312ZM142.141 12.6343L135.201 22.0205H116.696V30.7839L108.778 35.3213V4.58269H136.18L142.141 12.6343ZM134 13.1681L131.91 10.4101H116.696V16.0596H131.91L134 13.1681Z" fill="white"/>
</svg>
