<svg width="484" height="36" viewBox="0 0 484 36" fill="none" xmlns="http://www.w3.org/2000/svg">
<path d="M33.3631 12.6343L26.4236 22.0205H7.91819V30.7839L0 35.3213V4.58269H27.4023L33.3631 12.6343ZM25.2225 13.1681L23.1318 10.4101H7.91819V16.0596H23.1318L25.2225 13.1681ZM68.3736 4.58269L62.5462 10.4546H44.9304V15.0365H64.5479L59.2098 20.3746H44.9304V24.9564H67.4394L61.5675 30.8284H37.0122V4.58269H68.3736ZM105.607 35.3213L97.6883 30.7839V24.3782L95.2862 22.0205H80.1615V30.7839H72.2434V4.58269H99.6456L105.607 12.6343L101.069 18.7287L105.607 23.266V35.3213ZM97.4659 13.1681L95.3751 10.4101H80.1615V16.0596H95.3751L97.4659 13.1681ZM146.469 22.7322L140.508 30.7839H110.081L115.908 24.9564H135.882L137.75 22.7322L135.882 20.3746H115.864L110.081 12.6343L116.042 4.58269H146.469L140.597 10.4101H120.668L118.755 12.6343L120.668 14.992H140.686L146.469 22.7322ZM184.549 24.823L178.588 30.7839H156.747L150.786 24.823V10.5436L156.747 4.58269H178.588L184.549 10.5436V24.823ZM176.631 24.9564V10.4101H158.704V24.9564H176.631ZM222.575 30.7839H216.57L197.975 15.4813V30.7839L190.057 30.7394V4.58269H195.706L214.657 20.1966V4.58269L222.575 0.000817355V30.7839ZM260.005 35.3213L252.042 30.8284V23.266H236.117V30.8284L228.199 30.7839V10.5436L234.16 4.58269H254.044L260.005 10.5436V35.3213ZM252.042 17.4831V10.4546H236.117V17.4831H252.042ZM296.116 24.9564L290.244 30.8284H265.689V4.58269L273.607 0.000817355V24.9564H296.116ZM351.569 4.58269L345.742 10.4546H328.126V15.0365H347.744L342.406 20.3746H328.126V24.9564H350.635L344.763 30.8284H320.208V4.58269H351.569ZM396.009 35.3213L388.09 30.7839V14.0133L378.259 27.5365H373.144L363.357 14.0133V30.7839H355.439V4.58269H364.38L375.724 20.1966L387.023 4.58269H396.009V35.3213ZM433.424 35.3213L425.461 30.8284V23.266H409.536V30.8284L401.617 30.7839V10.5436L407.578 4.58269H427.463L433.424 10.5436V35.3213ZM425.461 17.4831V10.4546H409.536V17.4831H425.461ZM447.026 30.8284L439.108 30.7839V4.58269L447.026 0.000817355V30.8284ZM483.262 24.9564L477.39 30.8284H452.835V4.58269L460.753 0.000817355V24.9564H483.262Z" fill="white"/>
</svg>
