<svg width="671" height="77" viewBox="0 0 671 77" fill="none" xmlns="http://www.w3.org/2000/svg">
<path d="M-0.0001367 59.5195C0.688863 57.5055 1.37786 55.4385 2.11986 53.3185L4.34586 46.9585C5.82986 42.7185 7.26086 38.5315 8.53286 34.9275C10.0169 30.6345 11.4479 26.4475 12.8789 22.3665L6.46586 16.5895H51.0919C55.1199 16.5895 59.2539 18.1795 60.1019 22.5785C60.1549 23.0025 60.2079 23.3735 60.2079 23.7975C60.2079 24.6455 60.0489 25.4935 59.7309 26.3415L55.9149 37.4715C53.7949 43.4075 48.1239 47.2235 41.8699 47.2235H18.6559C18.2849 48.3365 17.8609 49.5555 17.3839 50.8805C16.5889 53.1595 15.5289 56.1805 14.4159 59.5195H-0.0001367ZM19.4509 26.9775L24.2209 31.2705L22.1009 37.3125H40.5449C41.1279 37.3125 41.5519 37.0475 41.7639 36.5705L44.8379 27.7195V27.4015C44.7849 27.0835 44.5199 26.9245 44.1489 26.9245L25.7049 26.9775H19.4509ZM63.0926 59.5195L75.9186 22.4725L69.3996 16.5895H114.768C118.107 16.5895 120.651 17.5435 122.294 19.4515C123.354 20.6705 123.937 22.0485 123.937 23.5855C123.937 24.4335 123.725 25.3875 123.407 26.3415L120.174 35.6695C119.273 38.2665 117.524 40.5455 114.927 42.5595C112.33 44.4675 108.938 45.4215 104.804 45.4215H104.486C106.977 49.3965 109.468 53.2655 111.853 57.0285C115.934 63.3885 120.81 71.1795 123.884 76.1085H105.705C104.168 73.2995 100.087 65.6145 96.3766 58.6185C94.2036 54.5375 91.8186 50.1385 89.3276 45.4215H82.3846L77.5086 59.5195H63.0926ZM82.4906 26.9775L87.2606 31.3235L85.8296 35.5635H104.857C105.493 35.5635 105.917 35.2985 106.076 34.7685L108.514 27.7195C108.567 27.6135 108.567 27.5075 108.567 27.4545C108.567 27.0835 108.302 26.9245 107.825 26.9245L88.7976 26.9775H82.4906ZM127.276 54.4845C127.17 54.1135 127.17 53.7425 127.17 53.3185C127.17 52.7355 127.223 52.1525 127.435 51.5695C127.965 50.0855 128.548 48.4955 129.131 46.7995C130.138 43.8845 131.41 40.1745 132.735 36.3585C133.954 32.7545 135.226 29.2035 136.127 26.5005C136.657 24.9635 137.187 23.4795 137.664 22.0485L131.569 16.5895H183.721L180.117 26.9245L150.384 26.9775H144.289L148.953 31.1645L148.052 33.7085H177.785C176.778 36.4645 175.771 39.6445 174.764 42.4005H140.367L143.918 45.6335L142.699 49.1315H172.432L168.828 59.5195H133.901C130.509 59.5195 127.806 57.2935 127.276 54.4845ZM184.516 59.5195C187.219 51.4105 190.399 42.3475 192.943 35.1395C194.215 31.3235 195.381 28.0905 196.176 25.7585C196.653 24.3805 197.077 23.1615 197.448 22.1015L191.3 16.5895H241.756L238.152 26.9245L210.168 26.9775H204.391L208.79 30.9525L207.836 33.7085H235.767C234.548 37.1535 233.435 40.3335 232.746 42.4005H199.621L203.596 46.0045C203.172 47.2765 202.695 48.6545 202.218 50.0855C201.37 52.5765 200.151 55.9155 198.932 59.5195H184.516ZM243.783 54.4845C243.677 54.1135 243.677 53.7425 243.677 53.3185C243.677 52.7355 243.73 52.1525 243.942 51.5695C244.472 50.0855 245.055 48.4955 245.638 46.7995C246.645 43.8845 247.917 40.1745 249.242 36.3585C250.461 32.7545 251.733 29.2035 252.634 26.5005C253.164 24.9635 253.694 23.4795 254.171 22.0485L248.076 16.5895H300.228L296.624 26.9245L266.891 26.9775H260.796L265.46 31.1645L264.559 33.7085H294.292C293.285 36.4645 292.278 39.6445 291.271 42.4005H256.874L260.425 45.6335L259.206 49.1315H288.939L285.335 59.5195H250.408C247.016 59.5195 244.313 57.2935 243.783 54.4845ZM300.454 59.5195L313.28 22.4725L306.761 16.5895H352.129C355.468 16.5895 358.012 17.5435 359.655 19.4515C360.715 20.6705 361.298 22.0485 361.298 23.5855C361.298 24.4335 361.086 25.3875 360.768 26.3415L357.535 35.6695C356.634 38.2665 354.885 40.5455 352.288 42.5595C349.691 44.4675 346.299 45.4215 342.165 45.4215H341.847C344.338 49.3965 346.829 53.2655 349.214 57.0285C353.295 63.3885 358.171 71.1795 361.245 76.1085H343.066C341.529 73.2995 337.448 65.6145 333.738 58.6185C331.565 54.5375 329.18 50.1385 326.689 45.4215H319.746L314.87 59.5195H300.454ZM319.852 26.9775L324.622 31.3235L323.191 35.5635H342.218C342.854 35.5635 343.278 35.2985 343.437 34.7685L345.875 27.7195C345.928 27.6135 345.928 27.5075 345.928 27.4545C345.928 27.0835 345.663 26.9245 345.186 26.9245L326.159 26.9775H319.852ZM364.637 54.4845C364.531 54.1135 364.531 53.7425 364.531 53.3185C364.531 52.7355 364.584 52.1525 364.796 51.5695C365.326 50.0855 365.909 48.4955 366.492 46.7995C367.499 43.8845 368.771 40.1745 370.096 36.3585C371.315 32.7545 372.587 29.2035 373.488 26.5005C374.018 24.9635 374.548 23.4795 375.025 22.0485L368.93 16.5895H421.082L417.478 26.9245L387.745 26.9775H381.65L386.314 31.1645L385.413 33.7085H415.146C414.139 36.4645 413.132 39.6445 412.125 42.4005H377.728L381.279 45.6335L380.06 49.1315H409.793L406.189 59.5195H371.262C367.87 59.5195 365.167 57.2935 364.637 54.4845ZM431.17 76.1085H416.754C420.57 65.2435 425.234 51.8345 428.891 41.0755C431.064 34.7685 433.237 28.5675 435.357 22.3665L428.944 16.5895H451.734L464.03 42.0825C466.256 35.5635 468.323 29.5215 470.284 23.9565C473.57 14.4695 477.174 3.81653 478.605 0.000529885H493.021L472.404 59.5195H458.73L445.745 33.9735C443.466 40.4925 441.399 46.5345 439.438 52.0995C436.099 61.5865 432.442 72.2395 431.17 76.1085ZM491.531 56.6575C490.471 55.4915 489.941 54.1135 489.941 52.5765C489.941 51.6755 490.1 50.7215 490.471 49.7145L498.527 26.3415C499.11 24.4335 500.17 22.6845 501.601 21.0945L496.619 16.5895H544.637C546.598 16.5895 548.082 17.1195 549.089 18.2325C549.725 18.9745 549.99 19.7695 549.99 20.7235C549.99 21.2005 549.937 21.7305 549.725 22.3135L546.439 31.9065H532.023L533.507 27.4015C533.507 27.3485 533.56 27.2425 533.56 27.1895C533.56 27.0305 533.401 26.9245 533.136 26.9245H513.685C513.632 26.9245 513.632 26.9775 513.579 26.9775H506.212L511.141 31.4295L505.311 48.3365C505.258 48.4425 505.258 48.5485 505.258 48.6545C505.258 48.9725 505.523 49.1315 506.053 49.1315H525.451C525.822 49.1315 526.087 48.9725 526.193 48.6545L527.73 44.2025H542.146L538.86 53.7955C537.588 57.2405 533.348 59.5195 529.797 59.5195H499.11C495.771 59.5195 493.227 58.5655 491.531 56.6575ZM554.174 54.4845C554.068 54.1135 554.068 53.7425 554.068 53.3185C554.068 52.7355 554.121 52.1525 554.333 51.5695C554.863 50.0855 555.446 48.4955 556.029 46.7995C557.036 43.8845 558.308 40.1745 559.633 36.3585C560.852 32.7545 562.124 29.2035 563.025 26.5005C563.555 24.9635 564.085 23.4795 564.562 22.0485L558.467 16.5895H610.619L607.015 26.9245L577.282 26.9775H571.187L575.851 31.1645L574.95 33.7085H604.683C603.676 36.4645 602.669 39.6445 601.662 42.4005H567.265L570.816 45.6335L569.597 49.1315H599.33L595.726 59.5195H560.799C557.407 59.5195 554.704 57.2935 554.174 54.4845ZM614.383 56.6575C613.323 55.4915 612.793 54.1135 612.793 52.5765C612.793 51.6755 612.952 50.7215 613.323 49.7145L614.648 45.8985H629.064L628.163 48.3365C628.11 48.4425 628.11 48.5485 628.11 48.6545C628.11 48.9725 628.375 49.1315 628.905 49.1315H646.448C647.084 49.1315 647.508 48.8665 647.667 48.3365L649.31 43.5665C649.363 43.4605 649.363 43.3545 649.363 43.2485C649.363 42.9835 649.151 42.8245 648.621 42.8245H627.739C624.4 42.8245 621.856 41.8705 620.16 39.9625C619.1 38.7965 618.57 37.4185 618.57 35.8815C618.57 34.9805 618.729 34.0265 619.1 33.0195L621.379 26.3415C622.068 24.2745 623.181 22.5255 624.665 21.0415L619.736 16.5895H661.023C664.468 16.5895 666.959 17.5435 668.602 19.3985C669.662 20.6175 670.192 22.0485 670.192 23.6385C670.192 24.4865 670.033 25.3875 669.715 26.3415L668.39 30.1575H653.974L654.769 27.7195C654.822 27.6135 654.822 27.4545 654.875 27.3485C654.822 27.0835 654.61 26.9245 654.133 26.9245H636.537C636.484 26.9245 636.484 26.9775 636.431 26.9775H629.7L634.152 31.0055L633.622 32.4895C633.569 32.5955 633.569 32.7015 633.569 32.8075C633.569 33.1255 633.834 33.2845 634.364 33.2845H655.246C658.638 33.2845 661.182 34.2385 662.878 36.0935C663.938 37.3125 664.468 38.6905 664.468 40.2275C664.468 41.1285 664.309 42.0825 663.938 43.0365L661.659 49.7145C659.486 55.7035 654.451 59.5195 648.038 59.5195H621.962C618.623 59.5195 616.079 58.5655 614.383 56.6575Z" fill="white"/>
</svg>
