<svg width="579" height="76" viewBox="0 0 579 76" fill="none" xmlns="http://www.w3.org/2000/svg">
<path d="M-0.00031404 54.5273L16.2911 7.47066L8.01077 -0.00186018H65.6367C69.8779 -0.00186018 73.1092 1.2099 75.2634 3.63342C76.6098 5.18178 77.283 6.9321 77.283 8.81706C77.283 9.9615 77.0811 11.1733 76.6098 12.385L72.5706 24.2333C71.3589 27.5993 69.1373 30.4941 65.8386 32.9849C62.54 35.4085 58.2315 36.6202 52.9805 36.6202H52.6439C55.808 41.6692 58.9047 46.5836 61.9341 51.3633C66.9831 59.509 73.3112 69.3377 77.2157 75.5985H54.125C52.1727 72.0305 47.0564 62.2018 42.344 53.3829C39.5838 48.1993 36.5544 42.6117 33.3904 36.6202H24.5042L18.3107 54.5273H-0.00031404ZM32.6499 13.1929H24.6388L30.7649 18.7131L28.88 24.0987H53.1152C53.8557 24.0987 54.3942 23.7621 54.5962 23.0889L57.6929 14.1353C57.7602 14.0007 57.7602 13.7987 57.7602 13.7314C57.7602 13.3275 57.491 13.1255 56.8178 13.1255L32.6499 13.1929ZM83.9572 48.1319C83.8226 47.6607 83.8226 47.1895 83.8226 46.6509C83.8226 45.9104 83.8899 45.1699 84.1592 44.4293C84.8324 42.5444 85.5729 40.5248 86.3134 38.3705C87.5925 34.6679 89.2082 29.9555 90.8912 25.1085C92.4395 20.5307 94.0552 16.0203 95.1996 12.587C95.8728 10.6347 96.546 8.74974 97.1519 6.9321L89.4101 -0.00186018H155.653L151.075 13.1255L113.309 13.1929H105.567L111.491 18.5111L110.347 21.7425H148.113C146.834 25.2431 145.555 29.2823 144.276 32.783H100.585L105.096 36.8895L103.547 41.3326H141.314L136.736 54.5273H92.3722C88.0637 54.5273 84.6304 51.6999 83.9572 48.1319ZM159.257 52.3731C158.449 51.4979 158.045 50.4881 158.045 49.3437C158.045 48.6705 158.18 47.9973 158.449 47.2568L170.432 12.385C171.308 9.82686 172.654 7.67262 174.472 5.85498L168.009 -0.00186018H237.416L232.905 13.1255H189.753C189.686 13.1255 189.619 13.1929 189.551 13.1929H180.665L186.589 18.5785L178.982 40.7267C178.982 40.7941 178.915 40.8614 178.915 40.9287C178.915 41.198 179.117 41.3326 179.521 41.3326H204.227C205.102 41.3326 205.708 40.996 205.91 40.3228L208.872 31.7732H206.314C204.968 30.3595 202.477 27.532 200.322 25.1758C199.043 23.7621 197.764 22.3484 196.351 20.8H230.818L223.481 42.0731C220.586 50.3535 215.267 54.5273 207.593 54.5273H164.845C162.421 54.5273 160.536 53.7868 159.257 52.3731ZM256.034 54.5273H237.723C239.272 50.0169 240.753 45.6411 242.234 41.3999C244.792 34.1294 247.552 25.6471 249.572 20.2615H267.883C264.853 17.5687 259.4 12.5197 254.486 8.14386C251.659 5.5857 248.697 2.8929 245.533 -0.00186018H274.884L268.556 18.2419C268.354 18.7131 268.152 19.4536 267.883 20.2615C267.546 21.1366 267.479 21.4059 267.412 21.6752C265.729 26.4549 264.18 30.9653 262.766 35.0719C260.276 42.0731 257.583 50.1515 256.506 53.1809C256.304 53.6522 256.236 53.9888 256.169 54.1907C256.102 54.3254 256.102 54.46 256.034 54.5273ZM281.004 50.8921C279.658 49.411 278.985 47.6607 278.985 45.7084C278.985 44.564 279.187 43.3522 279.658 42.0731L281.341 37.2261H299.652L298.508 40.3228C298.44 40.4575 298.44 40.5921 298.44 40.7267C298.44 41.1307 298.777 41.3326 299.45 41.3326H321.733C322.541 41.3326 323.079 40.996 323.281 40.3228L325.368 34.264C325.436 34.1294 325.436 33.9947 325.436 33.8601C325.436 33.5235 325.166 33.3215 324.493 33.3215H297.969C293.728 33.3215 290.497 32.1098 288.342 29.6863C286.996 28.2052 286.323 26.4549 286.323 24.5026C286.323 23.3582 286.525 22.1464 286.996 20.8673L289.891 12.385C290.766 9.75954 292.18 7.53798 294.064 5.65302L287.804 -0.00186018H340.246C344.622 -0.00186018 347.786 1.2099 349.873 3.5661C351.219 5.11446 351.892 6.9321 351.892 8.9517C351.892 10.0288 351.69 11.1733 351.286 12.385L349.603 17.2321H331.292L332.302 14.1353C332.37 14.0007 332.37 13.7987 332.437 13.6641C332.37 13.3275 332.1 13.1255 331.494 13.1255H309.144C309.077 13.1255 309.077 13.1929 309.01 13.1929H300.46L306.115 18.3092L305.442 20.1941C305.374 20.3288 305.374 20.4634 305.374 20.5981C305.374 21.002 305.711 21.2039 306.384 21.2039H332.908C337.217 21.2039 340.448 22.4157 342.602 24.7719C343.949 26.3203 344.622 28.0706 344.622 30.0229C344.622 31.1673 344.42 32.3791 343.949 33.5908L341.054 42.0731C338.294 49.6803 331.898 54.5273 323.753 54.5273H290.631C286.39 54.5273 283.159 53.3156 281.004 50.8921ZM362.497 7.33602L354.284 -0.00186018H428.538L424.028 13.1255L401.408 13.1929H392.859L399.389 19.0497C398.11 22.7523 396.763 26.6569 395.35 30.6287C392.993 37.4281 389.964 46.3143 387.069 54.5273H368.758C371.989 45.1699 375.625 34.8699 378.318 26.8588C379.933 22.1464 381.549 17.5687 383.097 13.1255H360.478L362.497 7.33602ZM429.432 48.1319C429.298 47.6607 429.298 47.1895 429.298 46.6509C429.298 45.9104 429.365 45.1699 429.634 44.4293C430.308 42.5444 431.048 40.5248 431.789 38.3705C433.068 34.6679 434.683 29.9555 436.366 25.1085C437.915 20.5307 439.53 16.0203 440.675 12.587C441.348 10.6347 442.021 8.74974 442.627 6.9321L434.885 -0.00186018H501.128L496.55 13.1255L458.784 13.1929H451.042L456.966 18.5111L455.822 21.7425H493.588C492.309 25.2431 491.03 29.2823 489.751 32.783H446.06L450.571 36.8895L449.023 41.3326H486.789L482.211 54.5273H437.847C433.539 54.5273 430.106 51.6999 429.432 48.1319ZM501.415 54.5273L517.707 7.47066L509.426 -0.00186018H567.052C571.294 -0.00186018 574.525 1.2099 576.612 3.63342C577.958 5.18178 578.699 6.9321 578.699 8.88438C578.699 9.9615 578.429 11.1733 578.025 12.385L573.919 24.2333C572.775 27.532 570.553 30.4268 567.254 32.9849C563.956 35.4085 559.647 36.6202 554.396 36.6202H553.992C557.156 41.6692 560.32 46.5836 563.35 51.3633C568.533 59.4417 574.727 69.3377 578.631 75.5985H555.541C553.588 72.0305 548.405 62.2691 543.692 53.3829C540.932 48.1993 537.903 42.6117 534.739 36.6202H525.92L519.726 54.5273H501.415ZM526.054 13.1929L532.113 18.7131L530.296 24.0987H554.463C555.271 24.0987 555.81 23.7621 556.012 23.0889L559.109 14.1353C559.176 14.0007 559.176 13.8661 559.176 13.7987C559.176 13.3275 558.839 13.1255 558.233 13.1255L534.066 13.1929H526.054Z" fill="white"/>
</svg>
