<svg width="394" height="36" viewBox="0 0 394 36" fill="none" xmlns="http://www.w3.org/2000/svg">
<path d="M33.36 30.78H25.4426V24.3749L23.0406 22.0174H7.91744V30.78L0 35.317V4.58127H27.3997L33.36 12.6322L28.823 18.7259L33.36 23.2629V30.78ZM25.2202 13.1659L23.1296 10.4082H7.91744V16.0571H23.1296L25.2202 13.1659ZM71.5944 24.8197L65.6341 30.78H43.7944L37.8341 24.8197V10.5416L43.7944 4.58127H65.6341L71.5944 10.5416V24.8197ZM63.6769 24.9531V10.4082H45.7515V24.9531H63.6769ZM107.526 24.9531L101.655 30.8245H77.1016V4.58127L85.019 -0.000165296V24.9531H107.526ZM140.147 24.9531L134.276 30.8245H109.723V4.58127L117.641 -0.000165296V24.9531H140.147ZM196.752 30.78H190.747L172.155 15.4789V30.78L164.237 35.317V4.58127H169.886L188.835 20.1938V4.58127H196.752V30.78ZM234.179 24.8197L228.218 30.78H208.336L202.375 24.8197V4.53679L210.293 4.58127V24.9531H226.217V4.58127L234.134 -0.000165296L234.179 24.8197ZM280.428 35.317L272.51 30.78V14.011L262.68 27.533H257.565L247.779 14.011V30.78H239.862V4.58127H248.802L260.145 20.1938L271.443 4.58127H280.428V35.317ZM319.882 22.7736L313.922 30.8245H286.166V4.58127H313.922L319.882 12.6322L316.146 17.7029L319.882 22.7736ZM311.208 12.6322L309.296 10.4526H294.084V15.0341H309.296L311.208 12.6322ZM311.208 22.7736L309.296 20.3717H294.084V24.9531H309.296L311.208 22.7736ZM356.532 4.58127L350.705 10.4526H333.091V15.0341H352.706L347.369 20.3717H333.091V24.9531H355.597L349.726 30.8245H325.173V4.58127H356.532ZM393.761 35.317L385.844 30.78V24.3749L383.442 22.0174H368.318V30.78H360.401V4.58127H387.801L393.761 12.6322L389.224 18.7259L393.761 23.2629V35.317ZM385.621 13.1659L383.531 10.4082H368.318V16.0571H383.531L385.621 13.1659Z" fill="white"/>
</svg>
