<svg width="268" height="31" viewBox="0 0 268 31" fill="none" xmlns="http://www.w3.org/2000/svg">
<path d="M33.3631 26.2018H25.445V19.7961L23.0428 17.4385H7.91819V26.2018L0 30.7392V0.00065682H27.4023L33.3631 8.05229L28.8258 14.1466L33.3631 18.684V26.2018ZM25.2225 8.58611L23.1318 5.82809H7.91819V11.4776H23.1318L25.2225 8.58611ZM71.6011 20.241L65.6402 26.2018H43.7985L37.8376 20.241V5.96154L43.7985 0.00065682H65.6402L71.6011 5.96154V20.241ZM63.6829 20.3744V5.82809H45.7558V20.3744H63.6829ZM110.612 20.241L104.651 26.2018H82.8091L76.8482 20.241V5.96154L82.8091 0.00065682H104.651L110.612 5.96154V20.241ZM102.693 20.3744V5.82809H84.7664V20.3744H102.693ZM156.689 30.7392L148.771 26.2018V9.43131L138.94 22.9545H133.824L124.038 9.43131V26.2018H116.119V0.00065682H125.061L136.404 15.6146L147.703 0.00065682H156.689V30.7392ZM216.841 26.2018H210.835L192.241 10.8993V26.2018L184.323 30.7392V0.00065682H189.972L208.922 15.6146V0.00065682H216.841V26.2018ZM256.098 20.241L250.137 26.2018H228.295L222.334 20.241V5.96154L228.295 0.00065682H250.137L256.098 5.96154V20.241ZM248.179 20.3744V5.82809H230.252V20.3744H248.179ZM267.172 26.1129H261.345V20.2854H267.172V26.1129Z" fill="white"/>
</svg>
