<svg width="429" height="80" viewBox="0 0 429 80" fill="none" xmlns="http://www.w3.org/2000/svg">
<path d="M36.3881 22.7322L30.4272 30.7839H0L5.82743 24.9564H25.8008L27.6692 22.7322L25.8008 20.3746H5.78294L0 12.6343L5.96088 4.58269H36.3881L30.5162 10.4101H10.5872L8.67442 12.6343L10.5872 14.992H30.6051L36.3881 22.7322ZM74.8047 4.58269L68.9773 10.4101H61.1925V35.3213L53.2743 30.7839V10.4101H45.4896L39.6622 4.58269H74.8047ZM105.874 35.3213L97.9114 30.8284V23.266H81.9861V30.8284L74.0679 30.7839V10.5436L80.0288 4.58269H99.9132L105.874 10.5436V35.3213ZM97.9114 17.4831V10.4546H81.9861V17.4831H97.9114ZM140.271 4.58269L134.444 10.4101H126.659V35.3213L118.741 30.7839V10.4101H110.956L105.129 4.58269H140.271ZM175.283 4.58269L169.456 10.4546H151.84V15.0365H171.458L166.12 20.3746H151.84V24.9564H174.349L168.477 30.8284H143.922V4.58269H175.283ZM219.723 35.3213L211.805 30.7839V14.0133L201.974 27.5365H196.858L187.071 14.0133V30.7839H179.153V4.58269H188.094L199.438 20.1966L210.737 4.58269H219.723V35.3213ZM256.823 4.58269L250.996 10.4546H233.38V15.0365H252.998L247.659 20.3746H233.38V24.9564H255.889L250.017 30.8284H225.462V4.58269H256.823ZM293.211 30.7839H287.206L268.611 15.4813V30.7839L260.693 30.7394V4.58269H266.342L285.293 20.1966V4.58269L293.211 0.000817355V30.7839ZM332.804 4.58269L326.977 10.4101H319.192V35.3213L311.274 30.7839V10.4101H303.489L297.662 4.58269H332.804ZM392.113 24.823L386.152 30.7839H364.311L358.35 24.823V10.5436L364.311 4.58269H386.152L392.113 10.5436V24.823ZM384.195 24.9564V10.4101H366.268V24.9564H384.195ZM428.982 4.58269L423.155 10.4546H405.539V15.0365H425.157L419.818 20.3746H405.539V35.3213L397.621 30.7839V4.58269H428.982ZM33.3631 56.6343L26.4236 66.0205H7.91819V74.7839L0 79.3213V48.5827H27.4023L33.3631 56.6343ZM25.2225 57.1681L23.1318 54.4101H7.91819V60.0596H23.1318L25.2225 57.1681ZM68.7315 68.823L62.7707 74.7839H42.8862L36.9254 68.823V48.5382L44.8435 48.5827V68.9564H60.7689V48.5827L68.6871 44.0008L68.7315 68.823ZM107.779 79.3213L99.8604 74.7839V68.3782L97.4583 66.0205H82.3336V74.7839H74.4154V48.5827H101.818L107.779 56.6343L103.241 62.7287L107.779 67.266V79.3213ZM99.638 57.1681L97.5472 54.4101H82.3336V60.0596H97.5472L99.638 57.1681ZM146.572 56.6343L139.632 66.0205H121.127V79.3213L113.209 74.7839V48.5827H140.611L146.572 56.6343ZM138.431 57.1681L136.341 54.4101H121.127V60.0596H136.341L138.431 57.1681ZM182.898 68.823L176.938 74.7839H155.096L149.135 68.823V54.5436L155.096 48.5827H176.938L182.898 54.5436V68.823ZM174.98 68.9564V54.4101H157.053V68.9564H174.98ZM223.491 66.7322L217.53 74.7839H187.103L192.93 68.9564H212.904L214.772 66.7322L212.904 64.3746H192.886L187.103 56.6343L193.064 48.5827H223.491L217.619 54.4101H197.69L195.777 56.6343L197.69 58.992H217.708L223.491 66.7322ZM259.43 48.5827L253.602 54.4546H235.987V59.0365H255.604L250.266 64.3746H235.987V68.9564H258.496L252.624 74.8284H228.068V48.5827H259.43Z" fill="white"/>
</svg>
