<svg width="240" height="258" viewBox="0 0 240 258" fill="none" xmlns="http://www.w3.org/2000/svg">
<mask id="path-1-inside-1_596_320" fill="white">
<path d="M201.6 23.3301C201.6 25.5392 203.39 27.3301 205.6 27.3301H236C238.209 27.3301 240 29.1209 240 31.3301V226.67C240 228.879 238.209 230.67 236 230.67H205.6C203.39 230.67 201.6 232.461 201.6 234.67V254C201.6 256.209 199.809 258 197.6 258H42.4004C40.1912 258 38.4004 256.209 38.4004 254V234.67C38.4004 232.461 36.6095 230.67 34.4004 230.67H4C1.79086 230.67 0 228.879 0 226.67V31.3301C0 29.1209 1.79086 27.3301 4 27.3301H34.4004C36.6095 27.3301 38.4004 25.5392 38.4004 23.3301V4C38.4004 1.79086 40.1913 0 42.4004 0H197.6C199.809 0 201.6 1.79086 201.6 4V23.3301Z"/>
</mask>
<path d="M205.6 27.3301V29.3301H236V27.3301V25.3301H205.6V27.3301ZM240 31.3301H238V226.67H240H242V31.3301H240ZM236 230.67V228.67H205.6V230.67V232.67H236V230.67ZM201.6 234.67H199.6V254H201.6H203.6V234.67H201.6ZM197.6 258V256H42.4004V258V260H197.6V258ZM38.4004 254H40.4004V234.67H38.4004H36.4004V254H38.4004ZM34.4004 230.67V228.67H4V230.67V232.67H34.4004V230.67ZM0 226.67H2V31.3301H0H-2V226.67H0ZM4 27.3301V29.3301H34.4004V27.3301V25.3301H4V27.3301ZM38.4004 23.3301H40.4004V4H38.4004H36.4004V23.3301H38.4004ZM42.4004 0V2H197.6V0V-2H42.4004V0ZM201.6 4H199.6V23.3301H201.6H203.6V4H201.6ZM197.6 0V2C198.704 2 199.6 2.89543 199.6 4H201.6H203.6C203.6 0.686293 200.913 -2 197.6 -2V0ZM38.4004 4H40.4004C40.4004 2.89543 41.2958 2 42.4004 2V0V-2C39.0867 -2 36.4004 0.686292 36.4004 4H38.4004ZM34.4004 27.3301V29.3301C37.7141 29.3301 40.4004 26.6438 40.4004 23.3301H38.4004H36.4004C36.4004 24.4346 35.505 25.3301 34.4004 25.3301V27.3301ZM0 31.3301H2C2 30.2255 2.89543 29.3301 4 29.3301V27.3301V25.3301C0.686292 25.3301 -2 28.0164 -2 31.3301H0ZM4 230.67V228.67C2.89543 228.67 2 227.774 2 226.67H0H-2C-2 229.984 0.686292 232.67 4 232.67V230.67ZM38.4004 234.67H40.4004C40.4004 231.356 37.7141 228.67 34.4004 228.67V230.67V232.67C35.505 232.67 36.4004 233.565 36.4004 234.67H38.4004ZM42.4004 258V256C41.2958 256 40.4004 255.105 40.4004 254H38.4004H36.4004C36.4004 257.314 39.0867 260 42.4004 260V258ZM201.6 254H199.6C199.6 255.105 198.704 256 197.6 256V258V260C200.913 260 203.6 257.314 203.6 254H201.6ZM205.6 230.67V228.67C202.286 228.67 199.6 231.356 199.6 234.67H201.6H203.6C203.6 233.565 204.495 232.67 205.6 232.67V230.67ZM240 226.67H238C238 227.774 237.105 228.67 236 228.67V230.67V232.67C239.314 232.67 242 229.984 242 226.67H240ZM236 27.3301V29.3301C237.105 29.3301 238 30.2255 238 31.3301H240H242C242 28.0164 239.314 25.3301 236 25.3301V27.3301ZM205.6 27.3301V25.3301C204.495 25.3301 203.6 24.4346 203.6 23.3301H201.6H199.6C199.6 26.6438 202.286 29.3301 205.6 29.3301V27.3301Z" fill="black" fill-opacity="0.6" mask="url(#path-1-inside-1_596_320)"/>
</svg>
