<svg width="305" height="36" viewBox="0 0 305 36" fill="none" xmlns="http://www.w3.org/2000/svg">
<path d="M31.8062 24.823L25.8453 30.7839H5.96088L0 24.823V0.000817355L7.91819 4.58269V24.9564H23.8435V4.58269H31.7617L31.8062 24.823ZM72.5749 22.7322L66.614 30.7839H36.1868L42.0143 24.9564H61.9877L63.856 22.7322L61.9877 20.3746H41.9698L36.1868 12.6343L42.1477 4.58269H72.5749L66.703 10.4101H46.7741L44.8613 12.6343L46.7741 14.992H66.792L72.5749 22.7322ZM108.514 4.58269L102.686 10.4546H85.0705V15.0365H104.688L99.3499 20.3746H85.0705V24.9564H107.579L101.708 30.8284H77.1523V4.58269H108.514ZM145.747 35.3213L137.828 30.7839V24.3782L135.426 22.0205H120.302V30.7839H112.383V4.58269H139.786L145.747 12.6343L141.209 18.7287L145.747 23.266V35.3213ZM137.606 13.1681L135.515 10.4101H120.302V16.0596H135.515L137.606 13.1681ZM183.695 30.7839H177.689L159.095 15.4813V30.7839L151.177 30.7394V4.58269H156.826L175.776 20.1966V4.58269L183.695 0.000817355V30.7839ZM221.125 35.3213L213.162 30.8284V23.266H197.237V30.8284L189.318 30.7839V10.5436L195.279 4.58269H215.164L221.125 10.5436V35.3213ZM213.162 17.4831V10.4546H197.237V17.4831H213.162ZM267.378 35.3213L259.46 30.7839V14.0133L249.629 27.5365H244.513L234.727 14.0133V30.7839H226.809V4.58269H235.75L247.093 20.1966L258.392 4.58269H267.378V35.3213ZM304.479 4.58269L298.651 10.4546H281.035V15.0365H300.653L295.315 20.3746H281.035V24.9564H303.544L297.673 30.8284H273.117V4.58269H304.479Z" fill="white"/>
</svg>
