<svg width="461" height="168" viewBox="0 0 461 168" fill="none" xmlns="http://www.w3.org/2000/svg">
<path d="M49.2839 4.53679L35.0948 30.78H27.7111L24.642 25.131L21.6173 30.78H14.2336L4.83837e-05 4.53679H8.09541L17.9255 22.4622L20.5498 17.6139L13.4775 4.53679H21.5728L24.642 10.1858L27.7111 4.53679H35.8064L28.7341 17.6139L31.4029 22.4622L41.233 4.53679H49.2839ZM85.2015 30.8245H77.284V20.3717H61.6271V30.8245L53.7096 30.78V4.58127H61.6271V15.0341H77.284V4.58127L85.2015 -0.000165296V30.8245ZM122.652 35.317L114.69 30.8245V23.2629H98.7661V30.8245L90.8487 30.78V10.5416L96.809 4.58127H116.692L122.652 10.5416V35.317ZM114.69 17.4805V10.4526H98.7661V17.4805H114.69ZM157.046 4.58127L151.219 10.4082H143.435V35.317L135.517 30.78V10.4082H127.733L121.907 4.58127H157.046ZM214.392 35.317L206.43 30.8245V23.2629H190.506V30.8245L182.589 30.78V10.5416L188.549 4.58127H208.432L214.392 10.5416V35.317ZM206.43 17.4805V10.4526H190.506V17.4805H206.43ZM253.435 35.317L245.518 30.78V24.3749L243.116 22.0174H227.993V30.78H220.075V4.58127H247.475L253.435 12.6322L248.898 18.7259L253.435 23.2629V35.317ZM245.295 13.1659L243.205 10.4082H227.993V16.0571H243.205L245.295 13.1659ZM290.223 4.58127L284.396 10.4526H266.782V15.0341H286.398L281.06 20.3717H266.782V24.9531H289.289L283.418 30.8245H258.865V4.58127H290.223ZM351.614 4.58127L337.78 18.4146V35.317L329.863 30.78V18.4146L315.985 4.58127H325.415L333.822 12.988L342.228 4.58127H351.614ZM384.756 24.8197L378.796 30.78H356.956L350.996 24.8197V10.5416L356.956 4.58127H378.796L384.756 10.5416V24.8197ZM376.839 24.9531V10.4082H358.913V24.9531H376.839ZM421.936 24.8197L415.976 30.78H396.093L390.133 24.8197V4.53679L398.051 4.58127V24.9531H413.974V4.58127L421.892 -0.000165296L421.936 24.8197ZM460.98 35.317L453.062 30.78V24.3749L450.66 22.0174H435.537V30.78H427.62V4.58127H455.019L460.98 12.6322L456.443 18.7259L460.98 23.2629V35.317ZM452.84 13.1659L450.749 10.4082H435.537V16.0571H450.749L452.84 13.1659ZM32.2481 48.5813L26.4212 54.4526H8.80709V59.0341H28.4228L23.0852 64.3717H8.80709V68.9531H31.314L25.4426 74.8245H0.889648V48.5813H32.2481ZM70.4428 74.78H61.0575L52.6508 66.3733L44.2441 74.78H34.8143L47.9359 61.7029L34.8143 48.5368H44.2441L52.6508 56.988L61.0575 48.5368H70.4428L57.3212 61.7029L70.4428 74.78ZM108.397 56.6322L101.459 66.0174H82.9549V79.317L75.0375 74.78V48.5813H102.437L108.397 56.6322ZM100.258 57.1659L98.1671 54.4082H82.9549V60.0571H98.1671L100.258 57.1659ZM143.405 48.5813L137.578 54.4526H119.964V59.0341H139.579L134.242 64.3717H119.964V68.9531H142.471L136.599 74.8245H112.046V48.5813H143.405ZM177.329 48.5813L171.502 54.4526H153.888V68.9531H176.395L170.524 74.8245H151.931L145.971 68.8642V54.5416L151.931 48.5813H177.329ZM214.253 48.5813L208.426 54.4082H200.642V79.317L192.725 74.78V54.4082H184.941L179.114 48.5813H214.253ZM245.319 79.317L237.357 74.8245V67.2629H221.434V74.8245L213.516 74.78V54.5416L219.477 48.5813H239.359L245.319 54.5416V79.317ZM237.357 61.4805V54.4526H221.434V61.4805H237.357ZM279.713 48.5813L273.886 54.4082H266.102V79.317L258.185 74.78V54.4082H250.401L244.574 48.5813H279.713ZM291.281 74.8245L283.364 74.78V48.5813L291.281 43.9998V74.8245ZM330.59 68.8197L324.629 74.78H302.79L296.829 68.8197V54.5416L302.79 48.5813H324.629L330.59 54.5416V68.8197ZM322.672 68.9531V54.4082H304.747V68.9531H322.672ZM368.612 74.78H362.607L344.014 59.4789V74.78L336.097 74.7355V48.5813H341.746L360.694 64.1938V48.5813L368.612 43.9998V74.78ZM409.447 66.7291L403.486 74.78H373.062L378.889 68.9531H398.861L400.729 66.7291L398.861 64.3717H378.845L373.062 56.6322L379.022 48.5813H409.447L403.575 54.4082H383.648L381.736 56.6322L383.648 58.9896H403.664L409.447 66.7291ZM32.2481 92.5813L26.4212 98.4526H8.80709V103.034H28.4228L23.0852 108.372H8.80709V123.317L0.889648 118.78V92.5813H32.2481ZM68.6087 123.317L60.6913 118.78V112.375L58.2894 110.017H43.1662V118.78H35.2487V92.5813H62.6484L68.6087 100.632L64.0718 106.726L68.6087 111.263V123.317ZM60.4689 101.166L58.3783 98.4082H43.1662V104.057H58.3783L60.4689 101.166ZM106.843 112.82L100.883 118.78H79.0431L73.0828 112.82V98.5416L79.0431 92.5813H100.883L106.843 98.5416V112.82ZM98.9257 112.953V98.4082H81.0002V112.953H98.9257ZM152.916 123.317L144.999 118.78V102.011L135.169 115.533H130.053L120.268 102.011V118.78H112.35V92.5813H121.291L132.633 108.194L143.931 92.5813H152.916V123.317ZM216.176 92.5813L202.342 106.415V123.317L194.425 118.78V106.415L180.547 92.5813H189.977L198.384 100.988L206.79 92.5813H216.176ZM249.318 112.82L243.358 118.78H221.518L215.558 112.82V98.5416L221.518 92.5813H243.358L249.318 98.5416V112.82ZM241.401 112.953V98.4082H223.475V112.953H241.401ZM286.498 112.82L280.538 118.78H260.655L254.695 112.82V92.5368L262.612 92.5813V112.953H278.536V92.5813L286.454 87.9998L286.498 112.82ZM325.542 123.317L317.624 118.78V112.375L315.222 110.017H300.099V118.78H292.182V92.5813H319.581L325.542 100.632L321.005 106.726L325.542 111.263V123.317ZM317.402 101.166L315.311 98.4082H300.099V104.057H315.311L317.402 101.166ZM41.4554 162.78H33.538V146.011L23.7079 159.533H18.5927L8.80709 146.011V162.78L0.889648 167.317V136.581H9.83013L21.1725 152.194L32.4704 136.581H41.4554V162.78ZM78.5524 136.581L72.7255 142.453H55.1115V147.034H74.7271L69.3895 152.372H55.1115V156.953H77.6183L71.747 162.824H47.194V136.581H78.5524ZM114.937 162.78H108.932L90.3393 147.479V162.78L82.4218 162.736V136.581H88.0708L107.019 152.194V136.581L114.937 132V162.78ZM154.526 136.581L148.699 142.408H140.915V167.317L132.998 162.78V142.408H125.214L119.387 136.581H154.526ZM187.463 156.82L181.503 162.78H159.663L153.703 156.82V142.542L159.663 136.581H181.503L187.463 142.542V156.82ZM179.546 156.953V142.408H161.62V156.953H179.546ZM226.33 167.317L218.413 162.78V156.375L216.011 154.017H200.888V162.78H192.97V136.581H220.37L226.33 144.632L221.793 150.726L226.33 155.263V167.317ZM218.19 145.166L216.1 142.408H200.888V148.057H216.1L218.19 145.166Z" fill="white"/>
</svg>
